<svg width="28" height="28" viewBox="0 0 28 28" fill="none" xmlns="http://www.w3.org/2000/svg">
<circle cx="14" cy="14" r="14" fill="#2EC5CE"/>
<path d="M9.28698 18.6469C8.89367 19.0346 8.88566 19.6738 9.32151 20.013C9.84528 20.4206 10.4212 20.759 11.0352 21.0184C11.957 21.408 12.9465 21.6122 13.9472 21.6194C14.9479 21.6266 15.9402 21.4365 16.8675 21.0602C17.4851 20.8096 18.0658 20.4795 18.5954 20.0794C19.036 19.7465 19.0372 19.1072 18.6494 18.7139L14.7038 14.7113C14.316 14.318 13.6829 14.3135 13.2896 14.7012L9.28698 18.6469Z" fill="white"/>
<path d="M20.4677 13.9622C21.02 13.9661 21.4776 13.5196 21.4085 12.9717C21.3261 12.3179 21.1583 11.6763 20.9083 11.0636C20.5321 10.1414 19.9772 9.30271 19.2755 8.59586C18.5738 7.889 17.7393 7.32792 16.8199 6.94491C15.9005 6.56189 14.9144 6.36452 13.9184 6.36415C12.9225 6.36378 11.9362 6.56041 11.0166 6.94274C10.0969 7.32506 9.26192 7.88553 8.55973 8.59186C7.85754 9.29819 7.30199 10.1364 6.92508 11.0583C6.67463 11.6709 6.50634 12.3124 6.42343 12.9661C6.35393 13.514 6.81126 13.9608 7.36353 13.9573L8.33839 13.9512C8.89066 13.9478 9.32464 13.4921 9.44097 12.9522C9.49739 12.6904 9.57684 12.4333 9.67871 12.1841C9.90715 11.6254 10.2439 11.1173 10.6695 10.6892C11.0951 10.2611 11.6011 9.92143 12.1585 9.6897C12.7159 9.45798 13.3137 9.3388 13.9173 9.33902C14.521 9.33925 15.1186 9.45888 15.6759 9.69102C16.2331 9.92316 16.7389 10.2632 17.1642 10.6916C17.5895 11.1201 17.9258 11.6284 18.1538 12.1873C18.2555 12.4365 18.3348 12.6937 18.391 12.9556C18.5069 13.4956 18.9406 13.9515 19.4928 13.9554L20.4677 13.9622Z" fill="white"/>
</svg>
